<?xml version="1.0" encoding="UTF-8"?> <svg xmlns="http://www.w3.org/2000/svg" xmlns:xlink="http://www.w3.org/1999/xlink" id="Слой_1" data-name="Слой 1" viewBox="0 0 668.36 450.69"> <defs> <style>.cls-1,.cls-13{fill:none;}.cls-2{fill:#ff7100;}.cls-3,.cls-8{fill:#d06800;}.cls-4{clip-path:url(#clip-path);}.cls-5{fill:#a22400;opacity:0.66;}.cls-12,.cls-15,.cls-19,.cls-23,.cls-24,.cls-5,.cls-8{isolation:isolate;}.cls-6{fill:#8b3a00;}.cls-7{fill:#f9f9f9;}.cls-8{opacity:0.5;}.cls-9{fill:#17c1ff;}.cls-10,.cls-23{fill:#323232;}.cls-11,.cls-24{fill:#f3f4f3;}.cls-12,.cls-21{fill:#cfcfcf;}.cls-12{opacity:0.8;}.cls-13{stroke:#323232;stroke-linecap:round;stroke-linejoin:round;stroke-width:2px;}.cls-14,.cls-15{fill:#0059d0;}.cls-15{opacity:0.21;}.cls-16{fill:#0057ff;}.cls-17{fill:#00adff;}.cls-18{fill:#e1573a;}.cls-19{fill:#3773c0;opacity:0.41;}.cls-20{fill:#fff;}.cls-22{fill:#bbaa9d;}.cls-23{opacity:0.3;}.cls-24{opacity:0.4;}</style> <clipPath id="clip-path"> <rect class="cls-1" y="-47.44" width="750" height="500"></rect> </clipPath> </defs> <title>3618948-01</title> <g id="BACKGROUND"> <rect id="_Прямоугольник_" data-name=" Прямоугольник " class="cls-2" y="-49.31" width="750" height="500"></rect> </g> <g id="OBJECTS"> <ellipse class="cls-3" cx="572.16" cy="357.07" rx="103.01" ry="6.64"></ellipse> <g class="cls-4"> <path class="cls-5" d="M638.85,195.14H625.28V226l-8.66,8.66v-9.81h-25.5v37.6h-16v-17.6H553.19V176.5H537.5v24.2H522.88v57l-6.44,6.44V241l-11-11V195.46l-6.87,6.87v14.06H488.12v25.83H472.76V185h-8.83V158.52h-3.6v28.77h-11.6V253.5l-10,10V211.81H417.18V226.2h-9.81v47.1l0,.3H661.24V217.53Z"></path> <rect class="cls-6" x="580.36" y="-95.19" width="255.39" height="393.73"></rect> <rect class="cls-6" x="561.73" y="-20.7" width="274.01" height="62.52"></rect> <path class="cls-7" d="M267.56-98.26s105.33-23.49,99.35,81.51,110.65,167.46,125.54,190c0,0-72.88-27-72.88,8.74s4.79,194.26-143.63,159.72-82.59,59.62-126.87,103.73-210.65-130-275.29-41.73V-104.23Z"></path> <path class="cls-6" d="M338,95.72c.16-.18-.07-.68-.56-1.34-.2-.27-.45-.57-.73-.88.47-3,4.37-6.66,7.8-9.31a26.29,26.29,0,0,0,8.12,3.86c1.27,3.22-.42,8.31-1,10-1.23-.12-2.13,0-2.17.22s1.37.9,3.21,1.23,3.37.31,3.44,0-.31-.4-.89-.63a7.79,7.79,0,0,0-.81-.26c-1-2.29.29-6.63,1.51-9.78a26.33,26.33,0,0,0,8,0c2.35,3.59,2.82,9.4,2.92,11.46-1.57.49-2.63,1.06-2.55,1.41s2.16.39,4.58-.17,4.3-1.39,4.19-1.85c0-.23-.59-.33-1.42-.3a4.64,4.64,0,0,0-1.13.1c-2.17-2.06-3-7.15-3.19-11.42a26.3,26.3,0,0,0,7-3.27c.58-.38,1.13-.79,1.67-1.21,3,1.23,5.81,4.92,6.72,6.24-.8.94-1.25,1.72-1.06,1.91s1.53-.61,2.84-1.94,2.17-2.6,1.92-2.85-.51,0-1,.38a8.29,8.29,0,0,0-.68.52c-2.23-.45-4.78-3.42-6.65-6.06a26.13,26.13,0,0,0,5.3-7.24c4,.57,8.2,3,9.78,4-.49,1.57-.63,2.76-.29,2.9s1.55-1.55,2.47-3.86,1.31-4.32.86-4.5c-.22-.09-.61.3-1.06,1-.18.28-.37.62-.57,1-2.63.54-6.63-1.22-10.06-3.2a26.43,26.43,0,0,0,1.52-11.08,21.85,21.85,0,0,1,7.54-1.23c.32,1.19.7,2,1,2s.37-1.6,0-3.44-.9-3.27-1.25-3.2c-.18,0-.27.43-.27,1.06v.85c-1.39,1.34-4.43,1.84-7.29,2a26.16,26.16,0,0,0-3.41-9.41,31,31,0,0,1,7.88-4.77c1,1.3,1.91,2.09,2.21,1.89s-.39-2.16-1.76-4.23-2.81-3.54-3.21-3.27c-.2.13-.1.67.22,1.44a10.16,10.16,0,0,0,.49,1c-.94,2.21-4,4.26-7.19,5.87a26.15,26.15,0,0,0-8.43-7.44,31.49,31.49,0,0,1,4.55-7.65c1.51.66,2.68.93,2.85.61s-1.37-1.71-3.56-2.88-4.15-1.78-4.38-1.36c-.11.21.23.64.87,1.16.26.21.57.44.92.67.22,2.33-1.42,5.5-3.4,8.38a26.43,26.43,0,0,0-11.93-2.22,23.27,23.27,0,0,1-.21-6.88c1.22-.18,2.07-.48,2-.75s-1.55-.54-3.41-.41-3.35.53-3.32.89c0,.18.4.31,1,.39a4.35,4.35,0,0,1,.85.06c1.1,1.43,1.31,4.18,1.19,6.86A26.14,26.14,0,0,0,347,39.91a30.59,30.59,0,0,1-4-8.53c1.4-.86,2.29-1.67,2.13-2s-2.19.15-4.4,1.29-3.83,2.4-3.61,2.82c.11.21.66.18,1.45-.06.32-.09.68-.22,1.07-.37,2.17,1.22,3.92,4.7,5.19,8.18a26.18,26.18,0,0,0-7.76,8.31,21.09,21.09,0,0,1-6.87-4.14c.54-1.11.79-2,.55-2.11s-1.33,1-2.28,2.57-1.47,3-1.16,3.24c.15.09.49-.15.9-.62.16-.19.34-.42.53-.67,2.07-.1,4.93,1.77,7.28,3.7a26.44,26.44,0,0,0-2.46,8.83c-4,.51-8.91-.89-10.72-1.47.09-1.65-.07-2.83-.43-2.88s-1.12,1.88-1.45,4.35-.21,4.51.27,4.57c.24,0,.52-.44.78-1.23a10.07,10.07,0,0,0,.3-1.1c2.55-1.24,7.18-.37,11.13.81a26.14,26.14,0,0,0,2,9.66c-2.14,2.56-6.79,3.92-8.39,4.33-.6-1.08-1.17-1.77-1.42-1.66s0,1.64.82,3.34,1.67,3,2,2.8c.16-.07.15-.49,0-1.09-.06-.24-.14-.52-.24-.82,1.27-2,5.32-3.43,8.54-4.24.32.57.65,1.14,1,1.69a26.36,26.36,0,0,0,4,4.68c-1.58,4-6.14,7.75-7.79,9-1.3-1-2.37-1.56-2.61-1.29s.91,2,2.75,3.67S337.71,96.07,338,95.72Z"></path> <path class="cls-6" d="M73.37,403.55c-.27-.14-.81.3-1.46,1.13-.26.34-.55.74-.84,1.18-3.88.41-9.61-3.2-14-6.55a33.44,33.44,0,0,0,2.1-11.24c3.54-2.62,10.35-2.2,12.57-2,.25,1.55.64,2.63,1,2.6s.66-2,.47-4.35-.72-4.25-1.18-4.21c-.23,0-.39.51-.48,1.3,0,.31-.05.69-.06,1.08-2.49,2-8.25,1.81-12.51,1.33A33.49,33.49,0,0,0,56.31,374c3.69-4,10.63-6.5,13.14-7.29,1.12,1.77,2.16,2.89,2.57,2.67s-.22-2.78-1.7-5.58-3.11-4.83-3.65-4.55c-.27.14-.21.84.1,1.85a14.44,14.44,0,0,0,.49,1.36c-1.83,3.34-7.82,6-13,7.65A33.45,33.45,0,0,0,48,362.6c-.66-.59-1.34-1.13-2-1.65.52-4.14,4.16-8.75,5.47-10.3,1.42.68,2.52,1,2.7.67s-1.25-1.68-3.31-2.86S47,346.64,46.73,347c-.11.2.2.62.8,1.13.24.21.53.43.86.67.18,2.88-2.64,7-5.27,10.15a33.23,33.23,0,0,0-10.63-4.15c-.6-5,1-11.07,1.75-13.33,2.09.09,3.6-.13,3.66-.58s-2.41-1.4-5.55-1.78-5.74-.2-5.81.41c0,.3.57.65,1.57,1,.41.13.88.26,1.4.37,1.53,3.06.67,8.55-.65,13.41A33.61,33.61,0,0,0,14.64,356a27.8,27.8,0,0,1-4-8.86c1.36-.78,2.24-1.52,2.09-1.83s-2.09.07-4.23,1.09S4.8,348.61,5,349c.1.21.62.19,1.39,0a9.54,9.54,0,0,0,1-.32c2.1,1.28,3.7,4.84,4.8,8.32a33.28,33.28,0,0,0-10.46,7.26,39.37,39.37,0,0,1-8.44-8.13c1.26-1.67,1.95-3,1.6-3.34S-7.6,354-9.7,356.35s-3.43,4.61-3,5c.23.2.86-.09,1.7-.74.34-.26.71-.58,1.11-.94,3,.43,6.54,3.53,9.57,6.93a33.26,33.26,0,0,0-6.4,12.8,40.06,40.06,0,0,1-10.89-3.1c.32-2.07.27-3.6-.18-3.7s-1.66,2.24-2.38,5.32-.83,5.68-.24,5.82c.3.07.71-.49,1.14-1.45.17-.39.35-.85.52-1.35,2.8-1,7.22,0,11.42,1.44a33.62,33.62,0,0,0,1.16,15.39,29.6,29.6,0,0,1-8.39,2.5c-.63-1.44-1.26-2.39-1.59-2.28s-.16,2.09.61,4.33,1.74,3.94,2.18,3.79c.22-.07.25-.6.14-1.38a5.29,5.29,0,0,0-.21-1.07c1.39-1.81,4.71-3,8-3.7a33.24,33.24,0,0,0,7,10.83,38.91,38.91,0,0,1-9.18,7.69c-1.52-1.44-2.8-2.27-3.14-2s.9,2.64,3,5,4.27,4,4.75,3.52c.23-.2,0-.86-.54-1.77-.22-.36-.49-.77-.81-1.2.75-3,4.46-6.3,8.35-9a33.31,33.31,0,0,0,12.75,6.82c-.11,3.84-2.06,8.19-2.85,9.8-1.54-.31-2.69-.32-2.78,0s1.63,1.32,3.91,2,4.23.81,4.36.37c.06-.22-.34-.55-1-.9a10,10,0,0,0-1-.43c-.81-2.52.57-6.64,2.17-10.16a33.62,33.62,0,0,0,11.66.14c1.94,4.78,1.82,11.25,1.69,13.66-2,.43-3.46,1-3.4,1.46s2.68.77,5.82.36,5.61-1.22,5.54-1.82c0-.3-.71-.49-1.76-.56H37.61C35.26,431,34.82,425,35,419.8a33.25,33.25,0,0,0,11.21-5.66c3.85,1.8,7,7.07,8.06,8.9-1.13,1.09-1.8,2-1.58,2.29s2-.59,3.84-2.09,3.08-3,2.79-3.37c-.14-.18-.65,0-1.34.35a9.34,9.34,0,0,0-.92.57c-2.92-.9-6-5.42-8-9.12.6-.58,1.18-1.18,1.74-1.81a33.52,33.52,0,0,0,4.46-6.39c5.44.63,11.54,5,13.63,6.64-.82,1.93-1.14,3.42-.74,3.63s2.16-1.77,3.61-4.57S73.91,403.83,73.37,403.55Z"></path> <path class="cls-6" d="M188.52,343.43c-.14.06-.15.41,0,.94a2.8,2.8,0,0,0,.19.71c-1.11,1.65-4.39,2.7-7.12,3.31a17,17,0,0,0-3.7-4.49c.14-2.23,2.52-4.76,3.33-5.55.69.41,1.23.61,1.33.47s-.56-.91-1.54-1.6-1.89-1.1-2-.92.07.32.35.61c.11.12.25.24.4.38,0,1.61-2,3.81-3.57,5.31a17,17,0,0,0-4.7-2.17c-.39-2.75.92-6.28,1.43-7.52,1.06.14,1.83.1,1.88-.13s-1.16-.82-2.73-1.16-2.9-.37-3-.06c0,.15.26.36.75.57.2.08.43.17.69.25.71,1.81-.23,5-1.26,7.57a17,17,0,0,0-5,0c-.44.07-.88.15-1.31.25-1.44-1.55-2.05-4.48-2.23-5.5.73-.33,1.2-.67,1.14-.83s-1.06-.06-2.2.36-2,.93-1.91,1.14.31.12.7.06l.54-.12c1.18.87,1.86,3.31,2.23,5.37a16.9,16.9,0,0,0-5.09,2.79,18.34,18.34,0,0,1-4.63-5c.72-.79,1.13-1.45,1-1.62s-1.33.48-2.51,1.58-2,2.17-1.74,2.4.44,0,.89-.29c.18-.12.39-.26.6-.43,1.69.4,3.55,2.53,5,4.63a17.1,17.1,0,0,0-3.91,6.09,14.14,14.14,0,0,1-4.75-1.34c.14-.79.14-1.37,0-1.41a4.13,4.13,0,0,0-1,2c-.35,1.16-.37,2.16-.15,2.22s.28-.18.45-.54q.1-.22.21-.51c1.18-.4,3.1.14,4.81.84a16.92,16.92,0,0,0-.58,6.45,20,20,0,0,1-5.93.64c-.24-1-.55-1.75-.78-1.72s-.36,1.37-.13,3,.68,2.84,1,2.8c.15,0,.24-.37.27-.9v-.74c1.16-1,3.51-1.4,5.82-1.47a16.92,16.92,0,0,0,2.9,6.67,20.37,20.37,0,0,1-4.77,3.24c-.7-.8-1.31-1.28-1.5-1.14s.33,1.38,1.3,2.67,1.95,2.18,2.19,2,0-.44-.19-.92c-.1-.2-.22-.41-.36-.65.51-1.43,2.34-2.83,4.29-4a17.1,17.1,0,0,0,6.38,4.57,15,15,0,0,1-1.76,4.09c-.77-.23-1.35-.29-1.41-.12s.76.74,1.89,1.17,2.11.61,2.19.39-.15-.29-.49-.51l-.48-.27c-.25-1.14.38-2.81,1.19-4.34a16.91,16.91,0,0,0,6.51.81,19.78,19.78,0,0,1,0,6.09c-1.06.12-1.8.35-1.79.58s1.32.51,2.93.45,2.9-.36,2.89-.67c0-.15-.34-.28-.87-.36-.21,0-.46-.06-.73-.07-.94-1.31-1-3.83-.79-6.22a16.94,16.94,0,0,0,6.82-2.75,13.64,13.64,0,0,1,2.89,4.31c-.62.5-1,.94-.9,1.09s1-.2,2-.88,1.7-1.38,1.57-1.58-.33,0-.7.11l-.49.25c-1.24-.51-2.4-2.39-3.25-4.16a17.1,17.1,0,0,0,3.86-4.5,18,18,0,0,1,5.88,3.8c-.5.94-.74,1.68-.54,1.81s1.17-.8,2-2.15,1.36-2.59,1.1-2.75-.42.12-.79.5c-.15.16-.31.35-.48.56-1.83,0-4.31-1.75-6.3-3.52a16.91,16.91,0,0,0,1.45-6.22c2-.91,5.06-.44,6.1-.24.06.8.2,1.36.38,1.36s.43-1,.44-2.18-.17-2.19-.4-2.19-.22.24-.3.64c0,.16-.06.34-.08.55-1.3.85-4.06.55-6.17.14a7.83,7.83,0,0,0-.14-1.27,17.05,17.05,0,0,0-1-3.83c2-1.92,5.72-2.86,7-3.15.49,1,1,1.56,1.18,1.47s0-1.42-.6-2.9S188.81,343.31,188.52,343.43Z"></path> <path class="cls-6" d="M435.3,90c-.07,0-.2.08-.37.28l-.21.3c-1,.1-2.42-.81-3.52-1.65a8.42,8.42,0,0,0,.53-2.83,5.31,5.31,0,0,1,3.17-.5c.06.39.16.66.25.65s.17-.5.12-1.09-.18-1.07-.3-1.06-.1.13-.12.33a1.13,1.13,0,0,0,0,.27c-.63.49-2.08.45-3.15.34a8.43,8.43,0,0,0-.67-2.47,8.23,8.23,0,0,1,3.31-1.85c.28.45.54.73.65.67s-.06-.7-.43-1.4-.78-1.22-.92-1.14,0,.21,0,.46a1.07,1.07,0,0,0,.12.34c-.46.84-2,1.5-3.27,1.93a8.42,8.42,0,0,0-1.59-1.89l-.51-.42a6,6,0,0,1,1.38-2.59c.36.17.64.24.68.17s-.32-.42-.83-.72-1-.46-1-.36,0,.16.2.29l.22.17a4.7,4.7,0,0,1-1.33,2.56,8.37,8.37,0,0,0-2.68-1,9.08,9.08,0,0,1,.44-3.36c.53,0,.91,0,.92-.15s-.61-.35-1.4-.45a2.45,2.45,0,0,0-1.46.1c0,.1.14.16.4.25l.35.09a5.56,5.56,0,0,1-.16,3.38,8.46,8.46,0,0,0-3.56.44,7,7,0,0,1-1-2.23c.34-.2.56-.38.53-.46s-.53,0-1.07.27-.94.55-.89.65.16,0,.35,0l.26-.08a4,4,0,0,1,1.21,2.1,8.38,8.38,0,0,0-2.63,1.83,9.92,9.92,0,0,1-2.13-2c.32-.42.49-.76.4-.84s-.64.3-1.16.89-.86,1.16-.75,1.26.22,0,.43-.19l.28-.24a4.94,4.94,0,0,1,2.41,1.74A8.38,8.38,0,0,0,415.19,84a10.09,10.09,0,0,1-2.74-.78c.08-.52.07-.91,0-.93a2.73,2.73,0,0,0-.6,1.34c-.18.78-.21,1.43-.06,1.47s.18-.12.29-.37a1.81,1.81,0,0,0,.13-.34,4.83,4.83,0,0,1,2.88.36,8.47,8.47,0,0,0,.29,3.88,7.46,7.46,0,0,1-2.11.63c-.16-.36-.32-.6-.4-.57s0,.53.15,1.09.44,1,.55,1,.06-.15,0-.35,0-.17,0-.27a3.7,3.7,0,0,1,2-.93A8.37,8.37,0,0,0,417.28,92,9.8,9.8,0,0,1,415,93.91c-.38-.36-.71-.57-.79-.49s.23.66.76,1.26,1.06,1,1.17.88,0-.22-.14-.44l-.2-.3a5.13,5.13,0,0,1,2.11-2.28A8.39,8.39,0,0,0,421,94.12a6.75,6.75,0,0,1-.72,2.47c-.39-.08-.68-.08-.7,0s.41.33,1,.49,1.07.2,1.1.09-.09-.14-.26-.23l-.25-.11a4.28,4.28,0,0,1,.55-2.56,8.47,8.47,0,0,0,2.94,0,8.92,8.92,0,0,1,.43,3.44c-.52.11-.87.25-.86.37s.68.19,1.46.09,1.41-.31,1.39-.46-.18-.12-.44-.14h-.36c-.59-.69-.7-2.19-.67-3.51a8.37,8.37,0,0,0,2.82-1.43,5.75,5.75,0,0,1,2,2.24c-.28.27-.45.51-.4.58s.51-.15,1-.53.78-.76.7-.85-.16,0-.34.09l-.23.14c-.74-.23-1.5-1.36-2-2.3.15-.15.3-.3.44-.46A8.45,8.45,0,0,0,430.73,90a8.16,8.16,0,0,1,3.43,1.67c-.21.49-.29.86-.19.91s.54-.45.91-1.15S435.44,90.09,435.3,90Z"></path> <rect class="cls-8" x="604.3" y="7.56" width="255.39" height="20.95"></rect> <rect class="cls-8" x="604.3" y="46.47" width="255.39" height="20.95"></rect> <rect class="cls-8" x="604.3" y="95.35" width="255.39" height="20.95"></rect> <rect class="cls-8" x="619.26" y="126.28" width="255.39" height="20.95"></rect> <rect class="cls-8" x="594.32" y="166.19" width="255.39" height="20.95"></rect> <path class="cls-3" d="M763.41,315H621.75s-12-57.86,5.32-61.19,28.6,31.92,28.6,31.92-14.63-69.83,10-73.82,29.93,42.57,29.93,42.57,37.91-38.57,63.85-12.64-3.33,55.87-3.33,55.87,9.31-8.65,18-3.33S763.41,315,763.41,315Z"></path> <circle class="cls-3" cx="378.89" cy="72.58" r="0.97" transform="translate(22.91 221.24) rotate(-33.51)"></circle> <circle class="cls-3" cx="368.1" cy="44.22" r="1.38" transform="translate(36.77 210.57) rotate(-33.51)"></circle> <ellipse class="cls-3" cx="349.68" cy="48.58" rx="8.62" ry="3.15" transform="translate(31.3 201.13) rotate(-33.51)"></ellipse> <ellipse class="cls-3" cx="371.03" cy="58.99" rx="4.53" ry="10.92" transform="translate(80.58 297.28) rotate(-48.4)"></ellipse> <circle class="cls-3" cx="337.9" cy="61.74" r="2.08" transform="translate(22.08 196.81) rotate(-33.51)"></circle> <ellipse class="cls-3" cx="349.78" cy="67.34" rx="5.1" ry="7.86" transform="translate(0.45 136.97) rotate(-22.17)"></ellipse> <ellipse class="cls-3" cx="369.89" cy="78.64" rx="5.88" ry="4.52" transform="translate(18.06 217.28) rotate(-33.51)"></ellipse> <ellipse class="cls-3" cx="352.34" cy="81.71" rx="3.55" ry="5.29" transform="translate(214.36 416.04) rotate(-80.63)"></ellipse> <circle class="cls-3" cx="31.54" cy="360.9" r="1.23" transform="translate(-259.25 144.82) rotate(-48.39)"></circle> <circle class="cls-3" cx="0.22" cy="383.41" r="1.76" transform="translate(-286.59 128.97) rotate(-48.39)"></circle> <ellipse class="cls-3" cx="11.6" cy="404.64" rx="4.01" ry="10.96" transform="translate(-298.65 144.61) rotate(-48.39)"></ellipse> <ellipse class="cls-3" cx="17.39" cy="375" rx="13.89" ry="5.76" transform="translate(-325.38 221.92) rotate(-63.28)"></ellipse> <circle class="cls-3" cx="31.6" cy="414.83" r="2.64" transform="translate(-299.54 162.99) rotate(-48.39)"></circle> <ellipse class="cls-3" cx="34.67" cy="398.4" rx="10" ry="6.49" transform="translate(-232.99 101.28) rotate(-37.04)"></ellipse> <ellipse class="cls-3" cx="41.94" cy="369.98" rx="5.75" ry="7.48" transform="translate(-262.54 155.65) rotate(-48.39)"></ellipse> <ellipse class="cls-3" cx="51.46" cy="390.58" rx="4.52" ry="6.72" transform="matrix(1, -0.1, 0.1, 1, -37.27, 6.75)"></ellipse> <circle class="cls-3" cx="158.24" cy="345.82" r="0.63" transform="translate(-49.04 26.97) rotate(-8.44)"></circle> <circle class="cls-3" cx="156.82" cy="365.36" r="0.9" transform="translate(-51.93 26.97) rotate(-8.44)"></circle> <ellipse class="cls-3" cx="170.2" cy="367.8" rx="5.58" ry="2.04" transform="translate(-53.18 29.65) rotate(-8.62)"></ellipse> <ellipse class="cls-3" cx="159.12" cy="355.91" rx="2.93" ry="7.06" transform="translate(-127.94 92.12) rotate(-23.33)"></ellipse> <circle class="cls-3" cx="179.3" cy="363.39" r="1.34" transform="translate(-51.39 30.25) rotate(-8.44)"></circle> <ellipse class="cls-3" cx="173.88" cy="356.83" rx="5.09" ry="3.3" transform="translate(-191.32 512.37) rotate(-87.09)"></ellipse> <ellipse class="cls-3" cx="165.18" cy="344.72" rx="3.8" ry="2.92" transform="matrix(0.99, -0.15, 0.15, 0.99, -48.81, 27.98)"></ellipse> <ellipse class="cls-3" cx="176.31" cy="347.72" rx="2.3" ry="3.42" transform="translate(-210.17 296.48) rotate(-55.56)"></ellipse> <circle class="cls-3" cx="424.77" cy="79.28" r="0.31" transform="translate(83.42 344.23) rotate(-48.39)"></circle> <circle class="cls-3" cx="416.88" cy="84.95" r="0.44" transform="translate(76.53 340.23) rotate(-48.39)"></circle> <ellipse class="cls-3" cx="419.76" cy="90.29" rx="1.01" ry="2.76" transform="translate(73.51 344.18) rotate(-48.39)"></ellipse> <ellipse class="cls-3" cx="421.22" cy="82.83" rx="3.5" ry="1.45" transform="translate(157.84 421.82) rotate(-63.28)"></ellipse> <circle class="cls-3" cx="424.78" cy="92.84" r="0.67" transform="translate(73.29 348.79) rotate(-48.39)"></circle> <ellipse class="cls-3" cx="425.57" cy="88.74" rx="2.52" ry="1.63" transform="translate(32.42 274.26) rotate(-37.04)"></ellipse> <ellipse class="cls-3" cx="427.39" cy="81.57" rx="1.45" ry="1.88" transform="translate(82.59 346.96) rotate(-48.39)"></ellipse> <ellipse class="cls-3" cx="429.82" cy="86.02" rx="1.15" ry="1.7" transform="translate(-6.43 43.2) rotate(-5.71)"></ellipse> <path class="cls-3" d="M478.77,452.31H337.11s-12-57.86,5.32-61.19S371,423,371,423s-14.63-69.83,10-73.82S411,391.79,411,391.79s37.91-38.57,63.85-12.64S471.48,435,471.48,435s9.31-8.65,18-3.33S478.77,452.31,478.77,452.31Z"></path> </g> <path class="cls-9" d="M531.61,187.75l-6-2.76s-5-4.89-6.08-5c-4.54-.26-6.23.36-4.16,1.94,1.6,1.22,4.32,2.35-2.4.63a17.52,17.52,0,0,1-3-1.62c-1-.77-2.37-.15-2.41.65s4,3.21,5.54,3.74a18.28,18.28,0,0,1-6.8-3.8,1.56,1.56,0,0,0-1.76.28c-.93.77-.22,1.56,1.43,3.1s6.81,3.66,6.81,3.66a32.29,32.29,0,0,1-8.06-4c-1.38-1-2.5.94-1.1,2.18a34.47,34.47,0,0,0,8.68,4.71c2.16.58-5.61-2.22-6.22-1.43s.88,2.13,2.55,2.6,8.27,2.31,10.32,2.45a106.88,106.88,0,0,0,11.7-.46C532,191.33,529.75,189.35,531.61,187.75Z"></path> <path class="cls-10" d="M498,170.59l24.78,15a2.18,2.18,0,0,1,.8,3.21h0a2.18,2.18,0,0,1-2.74.71l-26.56-11.16a2.18,2.18,0,0,1-1-2.91l.11-.2,1.78-3.82A2.18,2.18,0,0,1,498,170.59Z"></path> <path class="cls-10" d="M616.41,336.22a41.93,41.93,0,0,0,2.7,7.18c1.39,2.88,3.28,6.54,1.49,8.67-1,1.18-8.74,5.37-17.64,9-7.23,3-14.24,1.14-15.74.77-3.35-.83-5.62-7.59,1-10.66s10.54-1.5,11-5a25.58,25.58,0,0,0-.15-7.07Z"></path> <path class="cls-11" d="M604.07,227.54s5.5,13.14,4.74,24.44.19,22.11-.19,28.27-1,12.8-.19,15.63,10.44,21.45,11.76,29.93,2.24,10.31-3.26,11.81-19,7.15-23,3.66c-6.32-5.56-4.72-9-6.24-22s-8.92-18.79-8.92-31.26a113.74,113.74,0,0,1,4.93-32.42c2.47-7.81,9.87-26.94,10.82-26.94S604.07,227.54,604.07,227.54Z"></path> <path class="cls-10" d="M563.85,341.9a41.93,41.93,0,0,0,.18,7.67c.36,3.18,2.7,7.57.3,9s-34.82,3.86-37.7,2-2.81-9,4.47-9.74,11.66-2,13.28-5.15a25.58,25.58,0,0,0,2.19-6.72Z"></path> <path class="cls-11" d="M556.91,219.89c2.88,1.3-2.18,27.36-3.73,31.21s-9.6,26.4-9.72,31.06-3,19.16-2.6,32-2.7,24.31,1.61,28.41,21.2,5.21,24.54,2.17,1.46-37.93,2.07-45.42,7.38-19.88,12.72-32.09,8.41-9.76,13.17-11c13.47-3.66,16.62-25.94,9.08-28.6-7-2.47-3-7.66-3-7.66S556.2,219.57,556.91,219.89Z"></path> <path class="cls-12" d="M567,344.7c3.34-3,1.46-37.93,2.07-45.42s7.38-19.88,12.72-32.09c.28-.65,3.31-5.56,6-6.89,7.37-3.69,15.5-10.62,16-12.64-6.87,2.33-14.39,6.18-17.57,9.75a65.23,65.23,0,0,0-10.81,15.74c-3.1,6.65-11.83,23-11.31,23.89,3.57,5.82.22,30.65-1.22,34.09s-14.41.55-9.53,2.77,16.29,6.1,10.2,7.09-13.71,4.47-21.3,1.22c.09.1.17.22.27.32C546.8,346.63,563.68,347.74,567,344.7Z"></path> <path class="cls-13" d="M593.8,228.31c-12.69-6.49-15.57-15.52-22.94-21.22"></path> <path class="cls-14" d="M623.83,164.2c-.62-2.67-1.62-12.17-3.43-12.7s-15.15.73-16.35,3.2,2.11,12.51,2.11,12.51Z"></path> <path class="cls-15" d="M623.59,162.93c-.63-3.61-1.59-11-3.19-11.43a13.91,13.91,0,0,0-3.36-.06c.32,1.31.79,3.43.56,3.93s-8.23,3.63-13,6.17c.22.94.46,1.85.68,2.65C610,164.23,618.39,163.46,623.59,162.93Z"></path> <path class="cls-16" d="M601.66,165.32c1.19-3,21.62-6.5,24.93-3.23s8.85,47.9,7.79,56.3-28.51,5.18-28.51,5.18S599.19,171.66,601.66,165.32Z"></path> <path class="cls-17" d="M605.23,164.48s11.94-.62,18.32.59c0,0,6.2,17.31,6,33.42,0,0,1.39-18.35-3.79-35.27C625.78,163.23,622.3,160.25,605.23,164.48Z"></path> <path class="cls-10" d="M609.41,210.37c1.06,0,17.74-1.84,17.74-1.84l.49,2.46s-16.23,1.14-18.36,1.14Z"></path> <path class="cls-10" d="M609.69,213.78c1.06,0,17.74-1.84,17.74-1.84l.49,2.46s-16.23,1.14-18.36,1.14Z"></path> <path class="cls-10" d="M609.9,217c1.06,0,17.74-1.84,17.74-1.84l.49,2.46s-16.23,1.14-18.36,1.14Z"></path> <path class="cls-11" d="M559.41,161s-3.77,54.38-2.18,58.22-1.15,5.44-1.48,8.51-2.66,7.68-1.66,13c1.22,6.43,32.7-1.11,42.12,1.44,6,1.63,15.3-1.44,13.08-6.65-.91-2.13-.33-7-2.57-13.34s0-17.72-2.3-23-1.59-6.86-3.73-13.11,1.43-7.18-2.14-16.07-5-16.33-7.68-18.43c-5.81-4.61-11.54-5.5-12.12-5.36s-4.39.8-4.39.8Z"></path> <path class="cls-11" d="M575.73,109.39s-16.46,1.09-18.29,4-3.29,11.33-3.29,11.33,1.66,9.71,2.72,14.18c.18.74,4.71,8.39,8.74,11.38.42.31,2.81,9,2.81,9l20.84-9.87-.54-12.89.09-3.19a28.79,28.79,0,0,0-6.55-19.44C580.28,111.53,578,109.68,575.73,109.39Z"></path> <path class="cls-12" d="M585.49,122.29s-5.1,6.42-5.47,6.65-6.25,2.75-6.25,2.75,8-1.9,9.48-2.81S585.49,122.29,585.49,122.29Z"></path> <path class="cls-9" d="M558.48,136.39s-2-6.78-2-10.23,2.37-8.71,3.22-9.31c1.54-1.09,10.93-.74,12.07,9.63s-.23,21.06-5.75,20.72S558.48,136.39,558.48,136.39Z"></path> <path class="cls-12" d="M604.3,206.09l1.88,14.74s-6.21-.22-14.19,9.31c-2.28,2.72-8.13,4.62-13.08,5.76-5.76,1.33-12.86-10.2-12.86-18.18S604.3,206.09,604.3,206.09Z"></path> <path class="cls-10" d="M597.2,216.18s4.17,4.81,9.16,4.7l-.58-5.17-6.58-2.63Z"></path> <path class="cls-18" d="M562.19,128.14c0,.09-.4,4-.63,5s-1.06,6.86,1.32,5.78C564.77,138,562.19,128.14,562.19,128.14Z"></path> <path class="cls-3" d="M557.88,137s2.5-2.93,5-3.62S572.1,136,572.1,136s.9,9.86-5,11.24C560,149,557.88,137,557.88,137Z"></path> <path class="cls-19" d="M567,147.26c5.4-1.19,5.15-8.66,5.12-10.67-1.74-.36-5.42-1.06-5.42-.49,0,.75,2.7,5.63.57,6.72s-5.34.11-4.94,2.24a4.69,4.69,0,0,1,.1,1.19A5.61,5.61,0,0,0,567,147.26Z"></path> <path class="cls-12" d="M562.62,114.09s4.37.92,6,2.3,3.45,2.64,3.56,3.1a21.87,21.87,0,0,1,.34,2.87c0,.57,1,4.48,1,4.48s-.34-7.13-.34-7.59a9.64,9.64,0,0,0-2.3-2.93c-.34-.11-3.1-1.44-3.1-1.44Z"></path> <path class="cls-11" d="M587.08,141.42l5.25,7.6s8.79,2.29,11.46,3.17,9.34,14.17,10.69,25.69,2.6,25.6,2.61,31.36-20.88,7.67-29.23,17.79c-12.83,15.54-21.65-9.85-18.21-15,8.84-13.32,27.48-3.16,25.33-26.54-.85-9.28,4.32-18.32-.71-22.11C580.79,153.19,587.08,141.42,587.08,141.42Z"></path> <path class="cls-11" d="M572.26,150.11s-8.42,3.55-10.64,5.54-6.87,5.1-7.54,8.87-1.11,19.29-2.44,22.61-8-.06-8.91,0-8-2.29-10.6-2.06-5.1-2.88-7.2,6.32-.33,8.65.89,10.31,13.63,7.1,20,6.88,14.19,1.88,16.63-1.78,9-33,9-33Z"></path> <path class="cls-12" d="M556.36,208.79s.64-14.3,1.07-18.62,1.07-16,1.07-16l.21-5.65s.64,8,.43,15.63-1.92,18.9-1.92,23.56-.37,6.51-.32,8.92a34.56,34.56,0,0,0,.59,4.93,17.64,17.64,0,0,1-.91-6.37A48.23,48.23,0,0,0,556.36,208.79Z"></path> <circle class="cls-10" cx="618.93" cy="172.25" r="4.49"></circle> <path class="cls-12" d="M620.2,325.8a55.6,55.6,0,0,0-3.39-10.68c-5.56-3.9-21.87-2.79-25.48-14.26-3.92-12.46,11-9,8.65-21.28-.77-4-7.71-21-8-24.91-3.31,2.35-8,8.59-11.29,10.94-1.79,7.37-1.86,12.88-1.86,22.45,0,12.47,7.4,18.29,8.92,31.26s-.08,16.39,6.24,22c4,3.49,17.44-2.16,23-3.66S621.52,334.28,620.2,325.8Z"></path> <circle class="cls-20" cx="618.93" cy="172.25" r="2.71"></circle> <path class="cls-9" d="M516.59,180.07s-4.75.35-4.07,1.5a4.25,4.25,0,0,0,3.62,1.79c1.37,0,3.28-.29,3.45-.29s1.25.21,1.25.21Z"></path> <path class="cls-13" d="M618.93,172.25s2.35,18.61,4.54,32c2.69,16.35-16,34.39-33.14,21.92"></path> <path class="cls-13" d="M570.86,207.09a22.7,22.7,0,0,0-3.47-2.22c-12.86-6.65-20.78,7.87-7.81,15,9.86,5.44,39.57,82.16,13.14,94.94-39.9,19.29-24.94-111.4-50.55-127"></path> <path class="cls-9" d="M568.84,214l-3.35.77s-9.54-1.91-10-.91.5,3.17,2.5,3.34,2.67,1-3.5,4.17a17.52,17.52,0,0,1-3.34.79c-1.25.08-1.88,1.46-1.38,2.08s5.13-.25,6.63-.88a18.28,18.28,0,0,1-7.61,1.67,1.56,1.56,0,0,0-1.13,1.38c-.19,1.19.88,1.31,3.13,1.38s7.52-1.78,7.52-1.78a32.29,32.29,0,0,1-8.7,2.33c-1.68.18-1.25,2.36.63,2.36a34.47,34.47,0,0,0,9.62-2.23c2-1-5.25,3.19-5.19,4.19s1.5.56,3.06-.19a103.06,103.06,0,0,0,9.51-5.69,17.57,17.57,0,0,0,3-3.47A21.13,21.13,0,0,1,568.84,214Z"></path> <path class="cls-10" d="M599.48,150.89s-12.58,4.32-15.68,9.2,7.54,39.46,7.54,39.46l-5.32.89s-8.87-27-7.54-35.47,2-8.76,4.88-10.92,11.14-5,11.14-5S599.31,149.84,599.48,150.89Z"></path> <path class="cls-21" d="M586.34,167.18s6,13,8.65,18.29a19,19,0,0,1,1.22,12.3c-.33,1.33-20,6.86-22.28,8.31-3.1,2-4.88,7.4-4.88,7.4s1.66-6.73,4-8.06,18.51-7.09,20.51-9.42-2.55-6.54-3.21-12.86S586.34,167.18,586.34,167.18Z"></path> <path class="cls-10" d="M566.06,153s-6.87,7.54-6.87,12.64-.22,25.94-.22,25.94l-2.22,12.86-.44-27.93s-1.77-14.41-.67-16S561.18,153,566.06,153Z"></path> <path class="cls-12" d="M575.28,139.75s-.67,5.32-1.91,7.57-4.57,4.24-4.82,4.57,4.16-.83,6.24-1.5-1.25,4.41,1.91,2.41,8.4-6.07,8.31-5.15,4-3.41,4-3.41a49.82,49.82,0,0,1-8.2,2.77,25.3,25.3,0,0,0-5.93,2.11S576.81,143,575.28,139.75Z"></path> <path class="cls-10" d="M571,124.28c.5,0,10.31-1.33,10.81-1.44s4.77-1.83,4.77-1.83l.28.72s-3.6,2.05-4.66,2.44-10.86,3.1-10.86,3.1Z"></path> <path class="cls-10" d="M569,131.38l12.08,1.77,7.76-1.66v.66s-5.21,1.66-6.32,1.77-9.53.89-11.08,0-4-3-3.21-2.77Z"></path> <path class="cls-10" d="M556.2,123.6a35.24,35.24,0,0,0,7.15-.57c5.32-.76,7.19-1.92,8.22-.54s3.84,9.38,1,13.54-8.89-1.79-11.39-.6-4,2.38-4.29.24S551.32,124.28,556.2,123.6Z"></path> <path class="cls-22" d="M556.24,124.41a30.53,30.53,0,0,0,6.19-.49c4.61-.66,6.23-1.66,7.12-.46s3.33,8.13.89,11.73-7.7-1.55-9.87-.52-3.51,2.06-3.72.21S552,125,556.24,124.41Z"></path> <path class="cls-23" d="M571.57,122.5c-1-1.38-2.9-.22-8.22.54a35.23,35.23,0,0,1-7.15.57c-1.72.24-2.17,1.54-2,3.22,1-.09,2.35-.23,4-.47,5.32-.76,7.19-1.92,8.22-.54.88,1.18,3,7.19,1.91,11.51,1.65.4,3.2.29,4.27-1.3C575.41,131.88,572.6,123.88,571.57,122.5Z"></path> <path class="cls-24" d="M565.33,135.86a78,78,0,0,0,4.7-11.53,5.21,5.21,0,0,0-.47-.88c-.67-.91-1.77-.55-4.25,0a53.37,53.37,0,0,1-5.12,11.45l.39-.19C561.65,134.16,563.47,135.15,565.33,135.86Z"></path> <path class="cls-24" d="M570.39,125.21A54,54,0,0,1,565.63,136a7.29,7.29,0,0,0,2.36.5,77.47,77.47,0,0,0,3.41-7A19.17,19.17,0,0,0,570.39,125.21Z"></path> </g> </svg> 