<svg xmlns="http://www.w3.org/2000/svg">

  <symbol id="icon-moon" viewBox="0 0 24 24"><path d="M20.9999 12.79C20.9999 12.79 20.2038 16.1144 19.1581 17.4668C18.1125 18.8192 16.7034 19.8458 15.0956 20.4265C13.4878 21.0073 11.7479 21.1181 10.0794 20.7461C8.41092 20.3741 6.8829 19.5345 5.67413 18.3258C4.46536 17.117 3.62584 15.589 3.25381 13.9205C2.88178 12.252 2.99262 10.5121 3.57336 8.9043C4.15411 7.29651 5.18073 5.88737 6.53311 4.84175C7.8855 3.79614 9.5077 3.15731 11.2099 3C10.2133 4.34827 9.73375 6.00945 9.85843 7.68141C9.98312 9.35338 10.7038 10.9251 11.8893 12.1106C13.0748 13.2961 14.6465 14.0168 16.3185 14.1415C17.9905 14.2662 20.9999 12.79 20.9999 12.79Z"/>
</symbol>

<symbol id="icon-search" viewBox="0 0 24 24"><path d="M10 18C14.4183 18 18 14.4183 18 10C18 5.58172 14.4183 2 10 2C5.58172 2 2 5.58172 2 10C2 14.4183 5.58172 18 10 18Z" /><path d="M20.0004 20L15.6504 15.65"/></symbol>


<symbol id="icon-menu" viewBox="0 0 24 24">
  <line x1="2" y1="5" x2="22" y2="5" />
  <line x1="2" y1="12" x2="22" y2="12" />
  <line x1="2" y1="19" x2="22" y2="19" />
</symbol>

<symbol id="icon-close" viewBox="0 0 24 24">
  <line x1="4.19832" y1="3.76982" x2="20.4618" y2="20.0333"/>
  <line x1="4.00871" y1="20.0768" x2="20.2722" y2="3.81337"/>
</symbol>

<symbol id="icon-tel" viewBox="0 0 30 30">
  <path d="M13.0516 17.4633L19.7223 22.3917C20.4836 22.8118 21.0329 22.5942 21.2226 21.6851L23.9379 8.88946C24.2158 7.77491 23.513 7.26923 22.7847 7.59987L6.84037 13.7479C5.75203 14.1845 5.75852 14.7917 6.64201 15.0622L10.7337 16.3394L20.2064 10.3632C20.6536 10.092 21.0641 10.2377 20.7272 10.5367" />
</symbol>

<symbol id="icon-fb" viewBox="0 0 30 30">
  <path d="M16.2375 24.0002V15.8889H19.3571L19.824 12.2889H16.2375V11.1155C16.2375 10.0727 16.53 9.36278 18.033 9.36278L19.95 9.36053V6.14303C19.0222 6.04461 18.0897 5.99691 17.1566 6.00016C14.3925 6.00016 12.5025 7.67865 12.5025 10.7589V12.2889H9.375V15.8889H12.5025V24.0002H16.2375Z"/>
</symbol>



<symbol id="icon-vk" viewBox="0 0 30 30">
  <path d="M16.3045 22.4373C16.3045 22.4373 16.7418 22.3849 16.9641 22.124C17.1717 21.884 17.1656 21.4343 17.1656 21.4343C17.1656 21.4343 17.1349 19.3261 18.0377 19.0154C18.9271 18.7099 20.0707 21.0528 21.2794 21.9548C22.1946 22.6366 22.8911 22.4858 22.8911 22.4858L26.1267 22.4373C26.1267 22.4373 27.8169 22.3219 27.0148 20.8798C26.9472 20.7618 26.5468 19.8125 24.6071 17.8604C22.5803 15.8151 22.8506 16.1481 25.295 12.6121C26.7838 10.4607 27.3784 9.14698 27.1929 8.58453C27.0148 8.04699 25.9203 8.18859 25.9203 8.18859L22.2781 8.2135C22.2781 8.2135 22.0079 8.17417 21.8064 8.30396C21.6136 8.42983 21.487 8.72744 21.487 8.72744C21.487 8.72744 20.9097 10.3938 20.1407 11.8111C18.5193 14.799 17.8707 14.9576 17.6066 14.7702C16.9875 14.3388 17.1422 13.0317 17.1422 12.1048C17.1422 9.20729 17.5452 8.00111 16.3524 7.68645C15.9556 7.58419 15.6645 7.51601 14.6511 7.5029C13.3514 7.48979 12.252 7.50814 11.6293 7.83984C11.2141 8.0601 10.8922 8.55044 11.0888 8.57798C11.3295 8.61469 11.8749 8.73531 12.1636 9.16796C12.537 9.71599 12.5247 10.9549 12.5247 10.9549C12.5247 10.9549 12.7397 14.3637 12.0223 14.7872C11.531 15.077 10.8578 14.4857 9.41079 11.7731C8.6713 10.3833 8.11116 8.84937 8.11116 8.84937C8.11116 8.84937 8.00306 8.56093 7.81143 8.40885C7.57804 8.22137 7.25129 8.16499 7.25129 8.16499L3.79216 8.18728C3.79216 8.18728 3.26887 8.2017 3.07847 8.44949C2.91018 8.66713 3.06495 9.11814 3.06495 9.11814C3.06495 9.11814 5.776 16 8.84451 19.4651C11.6575 22.6458 14.855 22.436 14.855 22.436H16.3033L16.3045 22.4373Z" />
</symbol>


<symbol id="icon-twitter" viewBox="0 0 30 30">
  <path d="M26.6429 7.76262C25.7809 8.14151 24.8605 8.39963 23.8914 8.51748C24.879 7.92236 25.6387 6.98439 25.9981 5.86525C25.0719 6.40583 24.0453 6.79933 22.9524 7.01848C22.0797 6.08441 20.8359 5.5 19.4548 5.5C16.8084 5.5 14.6626 7.64574 14.6626 10.2892C14.6626 10.6691 14.7065 11.0343 14.7863 11.384C10.8026 11.196 7.27185 9.28305 4.9089 6.39122C4.493 7.09445 4.26021 7.91165 4.26021 8.80189C4.26021 10.4674 5.1076 11.9314 6.39134 12.7914C5.60532 12.7661 4.86604 12.5499 4.22125 12.1914V12.2509C4.22125 14.5739 5.87025 16.5112 8.06469 16.9524C7.66242 17.0605 7.23776 17.119 6.80237 17.119C6.49653 17.119 6.20336 17.0897 5.91018 17.0352C6.52478 18.9374 8.29163 20.3244 10.3945 20.3634C8.75818 21.6481 6.68452 22.4137 4.45111 22.4137C4.07125 22.4137 3.69236 22.3913 3.31152 22.3484C5.44363 23.7062 7.9556 24.5 10.6721 24.5C19.4908 24.5 24.3073 17.1988 24.3073 10.8775C24.3073 10.6739 24.3073 10.4684 24.2927 10.2639C25.2287 9.59279 26.0459 8.74443 26.6887 7.7821L26.6429 7.76262Z"/>
</symbol>

<symbol id="icon-more_horiz" viewBox="0 0 30 30">
  <circle cx="4.5" cy="15" r="3"/>
  <circle cx="15" cy="15" r="3" />
  <circle cx="25.5" cy="15" r="3"/>
</symbol>

<symbol id="icon-zen" viewBox="0 0 30 30">
  <path d="M15.3469 4C10.8094 4 7.69271 4 6.08854 5.60417C4.48438 7.20833 4.48438 10.5083 4.48438 14.8625C9.34271 14.725 11.5885 14.5875 13.376 12.8458C15.0719 11.1042 15.2094 8.85833 15.3469 4V4ZM6.08854 24.3958C4.48438 22.7917 4.48438 19.4917 4.48438 15.1375C9.34271 15.275 11.5885 15.4125 13.376 17.1542C15.1177 18.9417 15.2552 21.1417 15.3927 26.0458C10.8094 26 7.69271 26 6.08854 24.3958ZM15.6219 26C15.7594 21.1417 15.8969 18.8958 17.6385 17.1083C19.426 15.3667 21.626 15.2292 26.5302 15.0917C26.5302 19.4917 26.5302 22.7458 24.926 24.3958C23.276 26 20.1594 26 15.6219 26ZM15.6219 4C15.7594 8.85833 15.8969 11.1042 17.6385 12.8917C19.426 14.6333 21.626 14.7708 26.5302 14.9083C26.5302 10.5083 26.5302 7.25417 24.926 5.60417C23.276 4 20.1594 4 15.6219 4Z"/>
</symbol>



<symbol id="icon-youtube" viewBox="0 0 30 31">
<path d="M28.7017 7.13092C27.6679 5.93031 25.7625 5.44153 22.1171 5.44153H8.89059C5.16249 5.44153 3.2221 5.96311 2.19464 7.24082C1.18945 8.48736 1.18945 10.3211 1.18945 12.8617V17.7036C1.18945 22.6241 2.38073 25.1238 8.89059 25.1238H22.1171C25.2774 25.1238 27.0285 24.6924 28.1609 23.6312C29.322 22.5471 29.8182 20.774 29.8182 17.7036V12.8617C29.8182 10.1833 29.7403 8.33646 28.7017 7.13092ZM19.6725 16.2635L12.3738 20.0753C12.2023 20.1652 12.0117 20.2093 11.8194 20.2036C11.6271 20.1978 11.4393 20.1425 11.2731 20.0425C11.1094 19.945 10.9733 19.805 10.8784 19.6363C10.7835 19.4677 10.7332 19.2763 10.7324 19.0813V11.484C10.7335 11.2893 10.7839 11.0983 10.8788 10.9299C10.9737 10.7616 11.1096 10.6218 11.2731 10.5245C11.4387 10.4249 11.6258 10.3694 11.8174 10.3631C12.009 10.3568 12.1992 10.3999 12.3706 10.4884L19.6709 14.2756C20.0415 14.4675 20.2753 14.8497 20.2753 15.2695C20.274 15.4765 20.217 15.6791 20.1105 15.8546C20.0041 16.0301 19.8524 16.1717 19.6725 16.2635Z"/>
</symbol>


<symbol id="icon-instagram" viewBox="0 0 30 31">
  <!-- <linearGradient id="g1" gradientUnits="userSpaceOnUse" x1="10.9111" y1="0.0449" x2="12.9916" y2="23.8254">
		<stop  offset="0" style="stop-color:#613dc7"/>
		<stop  offset="1" style="stop-color:#db3270"/>
  </linearGradient> -->

<path d="M18.9095 15.1255C18.9095 13.1506 17.2988 11.5399 15.324 11.5399C13.3491 11.5399 11.7384 13.1506 11.7384 15.1255C11.7384 17.1003 13.3491 18.711 15.324 18.711C17.2988 18.711 18.9095 17.1003 18.9095 15.1255ZM20.8424 15.1255C20.8424 18.1788 18.3773 20.6439 15.324 20.6439C12.2706 20.6439 9.80557 18.1788 9.80557 15.1255C9.80557 12.0722 12.2706 9.60708 15.324 9.60708C18.3773 9.60708 20.8424 12.0722 20.8424 15.1255ZM22.355 9.38298C22.355 10.0973 21.7808 10.6715 21.0665 10.6715C20.3522 10.6715 19.7779 10.0973 19.7779 9.38298C19.7779 8.66867 20.3522 8.09442 21.0665 8.09442C21.7808 8.09442 22.355 8.66867 22.355 9.38298ZM15.324 6.30164C13.7553 6.30164 10.3938 6.17558 8.97921 6.73583C8.48899 6.93191 8.12483 7.17002 7.74667 7.54818C7.3685 7.92635 7.1304 8.2905 6.93431 8.78072C6.37407 10.1953 6.50012 13.5568 6.50012 15.1255C6.50012 16.6942 6.37407 20.0556 6.93431 21.4703C7.1304 21.9605 7.3685 22.3246 7.74667 22.7028C8.12483 23.081 8.48899 23.3191 8.97921 23.5151C10.3938 24.0754 13.7553 23.9493 15.324 23.9493C16.8927 23.9493 20.2541 24.0754 21.6687 23.5151C22.159 23.3191 22.5231 23.081 22.9013 22.7028C23.2794 22.3246 23.5175 21.9605 23.7136 21.4703C24.2739 20.0556 24.1478 16.6942 24.1478 15.1255C24.1478 13.5568 24.2739 10.1953 23.7136 8.78072C23.5175 8.2905 23.2794 7.92635 22.9013 7.54818C22.5231 7.17002 22.159 6.93191 21.6687 6.73583C20.2541 6.17558 16.8927 6.30164 15.324 6.30164ZM26.0807 15.1255C26.0807 16.6101 26.0947 18.0808 26.0106 19.5654C25.9266 21.2882 25.5344 22.8148 24.2739 24.0754C23.0133 25.3359 21.4867 25.7281 19.7639 25.8121C18.2793 25.8962 16.8086 25.8822 15.324 25.8822C13.8393 25.8822 12.3687 25.8962 10.884 25.8121C9.16129 25.7281 7.63462 25.3359 6.37407 24.0754C5.11352 22.8148 4.72135 21.2882 4.63731 19.5654C4.55328 18.0808 4.56728 16.6101 4.56728 15.1255C4.56728 13.6408 4.55328 12.1702 4.63731 10.6855C4.72135 8.9628 5.11352 7.43613 6.37407 6.17558C7.63462 4.91503 9.16129 4.52286 10.884 4.43883C12.3687 4.35479 13.8393 4.3688 15.324 4.3688C16.8086 4.3688 18.2793 4.35479 19.7639 4.43883C21.4867 4.52286 23.0133 4.91503 24.2739 6.17558C25.5344 7.43613 25.9266 8.9628 26.0106 10.6855C26.0947 12.1702 26.0807 13.6408 26.0807 15.1255Z"/>
</symbol>


<symbol id="icon-rss" viewBox="0 0 27 30">
<path d="M6.49805 13.8962C8.885 13.8962 11.1742 14.8445 12.862 16.5323C14.5498 18.2201 15.498 20.5093 15.498 22.8962" stroke-linecap="square"/>
<path d="M6.49805 6.89624C10.7415 6.89624 14.8112 8.58195 17.8118 11.5825C20.8123 14.5831 22.498 18.6528 22.498 22.8962" stroke-linecap="square"/>
<path d="M7.49805 22.8962C8.05033 22.8962 8.49805 22.4485 8.49805 21.8962C8.49805 21.344 8.05033 20.8962 7.49805 20.8962C6.94576 20.8962 6.49805 21.344 6.49805 21.8962C6.49805 22.4485 6.94576 22.8962 7.49805 22.8962Z" stroke-linecap="square"/>
</symbol>


<symbol id="icon-quote" viewBox="0 0 60 45">
<path opacity="0.5" d="M59 6.848C54.64 8.224 51.1405 10.288 48.5015 13.04C45.9773 15.792 43.1998 20.0971 45.5757 23.704C46.9194 25.7439 48.6162 25.8253 50.911 26.972C53.2057 28.004 55.6555 27.1944 56.9347 29.38C57.9867 31.1774 57.3937 32.992 56.9347 34.712C56.4758 36.432 55.73 37.98 54.6973 39.356C53.6647 40.6173 52.4599 41.7067 51.0831 42.624C49.7062 43.4267 48.4441 43.8853 47.2967 44C43.2809 43.656 39.7814 42.1653 36.7982 39.528C33.815 36.8907 32.3234 33.1067 32.3234 28.176C32.3234 25.3093 32.7824 22.4427 33.7003 19.576C34.7329 16.7093 36.2245 14.072 38.1751 11.664C40.1256 9.14134 42.5925 6.96267 45.5757 5.12801C48.5588 3.17867 52.1157 1.80267 56.2463 1L59 6.848ZM27.6766 6.848C23.3165 8.224 19.817 10.288 17.178 13.04C14.6538 15.792 11.8764 20.0971 14.2522 23.704C15.5959 25.7439 17.2928 25.8253 19.5875 26.972C21.8823 28.004 24.3321 27.1944 25.6113 29.38C26.6632 31.1774 26.0702 32.992 25.6113 34.712C25.1523 36.432 24.4065 37.98 23.3739 39.356C22.3412 40.6173 21.1365 41.7067 19.7596 42.624C18.3828 43.4267 17.1207 43.8853 15.9733 44C11.9575 43.656 8.45796 42.1653 5.47478 39.528C2.49159 36.8907 1 33.1067 1 28.176C1 25.3093 1.45895 22.4427 2.37685 19.576C3.40949 16.7093 4.90109 14.072 6.85163 11.664C8.80218 9.14134 11.269 6.96267 14.2522 5.12801C17.2354 3.17867 20.7923 1.80267 24.9228 1L27.6766 6.848Z" stroke-width="2" stroke-linecap="round" stroke-linejoin="round"/>
</symbol>

<symbol id="icon-send" viewBox="0 0 36 35">
<path d="M5.2811 15.0421H1.76037C1.29349 15.0421 0.845733 15.2276 0.5156 15.5577C0.185467 15.8879 0 16.3356 0 16.8025C0 17.2694 0.185467 17.7171 0.5156 18.0473C0.845733 18.3774 1.29349 18.5629 1.76037 18.5629H5.2811C5.74798 18.5629 6.19574 18.3774 6.52587 18.0473C6.856 17.7171 7.04147 17.2694 7.04147 16.8025C7.04147 16.3356 6.856 15.8879 6.52587 15.5577C6.19574 15.2276 5.74798 15.0421 5.2811 15.0421ZM34.8201 10.0427V9.93708C34.3157 9.32058 33.6784 8.82616 32.9559 8.49082C32.2334 8.15548 31.4444 7.98792 30.648 8.00068H16.6883C15.3948 7.98906 14.142 8.45259 13.1676 9.30335C12.2574 10.1053 11.6591 11.2023 11.4776 12.4016L9.92847 21.2034C9.79526 21.9635 9.83025 22.7436 10.031 23.4888C10.2317 24.2339 10.5933 24.926 11.0903 25.5163C11.5847 26.1047 12.2016 26.5781 12.8979 26.9034C13.5941 27.2287 14.353 27.3982 15.1216 27.3999H29.0989C30.3545 27.4189 31.5757 26.9899 32.5435 26.1898C33.5114 25.3897 34.1625 24.271 34.38 23.0342L35.9291 14.2324C36.0511 13.4953 36.0153 12.7408 35.8242 12.0185C35.633 11.2963 35.2908 10.6229 34.8201 10.0427ZM29.9967 11.5214L24.0114 16.38C23.6575 16.6652 23.2071 16.8025 22.7543 16.7631C22.3015 16.7238 21.8814 16.5108 21.5821 16.1688L17.4804 11.5214H29.9967ZM30.8416 22.3829C30.7704 22.7962 30.5539 23.1705 30.2312 23.4384C29.9084 23.7062 29.5006 23.8501 29.0813 23.844H15.1216C14.8659 23.8418 14.6138 23.784 14.3828 23.6746C14.1517 23.5652 13.9473 23.4067 13.7837 23.2103C13.6197 23.0148 13.5001 22.7861 13.4332 22.5399C13.3663 22.2937 13.3538 22.0359 13.3964 21.7844L14.8047 13.8099L18.9416 18.4925C19.842 19.5159 21.1033 20.1515 22.4616 20.2663C23.8199 20.3812 25.17 19.9663 26.2295 19.1086L32.2851 14.162L30.8416 22.3829ZM7.04147 8.00068H1.76037C1.29349 8.00068 0.845733 8.18614 0.5156 8.51628C0.185467 8.84641 0 9.29417 0 9.76104C0 10.2279 0.185467 10.6757 0.5156 11.0058C0.845733 11.3359 1.29349 11.5214 1.76037 11.5214H7.04147C7.50835 11.5214 7.9561 11.3359 8.28624 11.0058C8.61637 10.6757 8.80184 10.2279 8.80184 9.76104C8.80184 9.29417 8.61637 8.84641 8.28624 8.51628C7.9561 8.18614 7.50835 8.00068 7.04147 8.00068Z"/>
</symbol>


<svg id="icon-author" viewBox="0 0 18 18">
<path fill-rule="evenodd" clip-rule="evenodd" d="M0 2C0 0.89543 0.895431 0 2 0H16C17.1046 0 18 0.895431 18 2V16C18 17.1046 17.1046 18 16 18H2C0.89543 18 0 17.1046 0 16V2ZM5.90625 5.04596C5.90625 2.34596 7.875 1.89474 9 1.89474C10.125 1.89474 12.0925 2.34596 12.0925 5.04596C12.0925 7.16815 10.8814 7.77696 9.74013 8.05263L12.0925 16.3149H5.80263L8.05263 8.05263C6.91141 7.77696 5.90625 7.16815 5.90625 5.04596Z" />
</svg>

</svg>
