<svg width="158" height="18" viewBox="0 0 158 18" fill="none" xmlns="http://www.w3.org/2000/svg">
<g clip-path="url(#clip0)">
<path d="M3.63176 9.77979V14.6204H0V0.138428H5.52193C6.6247 0.138428 7.5719 0.259309 8.36353 0.501071C9.15515 0.742833 9.80697 1.07588 10.319 1.50022C10.8204 1.90981 11.209 2.42402 11.4527 3.00025C11.696 3.57688 11.8177 4.19973 11.818 4.8688C11.818 5.59125 11.6928 6.2539 11.4422 6.85675C11.198 7.45094 10.8038 7.98254 10.2925 8.40726C9.77637 8.83808 9.12272 9.17431 8.33153 9.41593C7.54035 9.65756 6.60381 9.77844 5.52193 9.77857L3.63176 9.77979ZM3.63176 7.24595H5.5228C6.46781 7.24595 7.14819 7.03723 7.56394 6.61979C7.97969 6.20235 8.1875 5.61916 8.18735 4.87022C8.18735 4.53873 8.13359 4.2373 8.02608 3.96594C7.92312 3.70082 7.75589 3.46104 7.53721 3.26498C7.31809 3.06971 7.04236 2.91896 6.71002 2.81275C6.37768 2.70653 5.98194 2.65348 5.5228 2.65362H3.63176V7.24595Z" fill="#1D1D1B"/>
<path d="M17.9753 4.1543C18.8196 4.1543 19.5895 4.27694 20.2851 4.52221C20.9808 4.76749 21.5771 5.11885 22.0741 5.57629C22.5719 6.0336 22.959 6.58861 23.2354 7.24133C23.5118 7.89405 23.6497 8.62785 23.6491 9.44273C23.6491 10.2644 23.5112 11.0049 23.2354 11.6642C22.9596 12.3235 22.5725 12.8833 22.0741 13.3436C21.5759 13.8044 20.9796 14.159 20.2851 14.4072C19.5907 14.6555 18.8207 14.7798 17.9753 14.7802C17.1225 14.7802 16.347 14.656 15.6489 14.4076C14.9508 14.1593 14.3491 13.8047 13.844 13.344C13.3388 12.8836 12.9483 12.3238 12.6725 11.6646C12.3967 11.0054 12.259 10.2648 12.2593 9.44273C12.2593 8.62758 12.3971 7.89378 12.6728 7.24133C12.9484 6.58888 13.3389 6.03387 13.8442 5.57629C14.3491 5.11939 14.9507 4.76803 15.6491 4.52221C16.3475 4.2764 17.123 4.15376 17.9753 4.1543ZM17.9753 12.4937C18.7411 12.4937 19.3051 12.2437 19.6672 11.7437C20.0293 11.2436 20.2104 10.4834 20.2104 9.463C20.2104 8.44271 20.0295 7.68404 19.6676 7.187C19.3058 6.68996 18.7417 6.44111 17.9753 6.44043C17.1865 6.44043 16.6095 6.68895 16.2443 7.18599C15.8791 7.68303 15.6965 8.44203 15.6965 9.463C15.6965 10.4834 15.8791 11.2439 16.2443 11.7445C16.6095 12.245 17.1865 12.495 17.9753 12.4945V12.4937Z" fill="#1D1D1B"/>
<path d="M33.511 6.7584C33.4254 6.85768 33.328 6.94777 33.2207 7.02699C33.1278 7.09327 32.995 7.12632 32.8236 7.12632C32.6669 7.12837 32.5126 7.09058 32.3775 7.01706C32.2449 6.94408 32.0961 6.863 31.9314 6.77381C31.7466 6.67618 31.5525 6.59474 31.3513 6.53056C31.1293 6.45799 30.8536 6.42164 30.5241 6.4215C30.1158 6.4215 29.7631 6.49103 29.4658 6.63009C29.1699 6.76809 28.9167 6.97328 28.73 7.22645C28.5367 7.48511 28.3934 7.80153 28.3 8.17573C28.2067 8.54993 28.1602 8.9723 28.1607 9.44285C28.1607 10.4303 28.3666 11.189 28.7784 11.7191C29.1902 12.2491 29.7578 12.5141 30.4812 12.5141C30.868 12.5141 31.1743 12.4693 31.4 12.3799C31.6036 12.3018 31.7965 12.2017 31.9747 12.0817C32.1325 11.9724 32.2775 11.871 32.4097 11.7776C32.5419 11.6843 32.7084 11.6379 32.9093 11.6386C33.1745 11.6386 33.375 11.7281 33.511 11.9072L34.478 13.0105C34.1344 13.3754 33.7727 13.6718 33.3929 13.8998C33.029 14.1213 32.6377 14.3015 32.2274 14.4368C31.8389 14.5639 31.4374 14.6538 31.029 14.7049C30.641 14.7536 30.25 14.7785 29.8584 14.7793C29.1891 14.7814 28.5261 14.6598 27.9082 14.4218C27.2913 14.185 26.7349 13.8313 26.2749 13.3833C25.806 12.9292 25.4335 12.371 25.1574 11.7085C24.8813 11.0461 24.7434 10.2908 24.7437 9.44265C24.7437 8.70047 24.8633 8.00634 25.1026 7.36024C25.3419 6.71414 25.6964 6.1544 26.1662 5.68101C26.6351 5.20803 27.2154 4.83525 27.9069 4.56268C28.5985 4.2901 29.3989 4.15422 30.3083 4.15503C31.182 4.15503 31.9485 4.28429 32.6076 4.54281C33.2667 4.80133 33.8613 5.17891 34.3912 5.67554L33.511 6.7584Z" fill="#1D1D1B"/>
<path d="M42.3321 5.08903C42.4995 4.85469 42.7263 4.66178 42.9928 4.52713C43.2564 4.38777 43.5547 4.31415 43.8583 4.31348H46.4904L44.1473 8.06052C43.9685 8.33891 43.7859 8.56418 43.5995 8.73635C43.4072 8.91227 43.1763 9.04791 42.9224 9.13406C43.2876 9.24703 43.5848 9.40609 43.814 9.61123C44.0433 9.81637 44.2473 10.0748 44.4263 10.3866L46.758 14.6205H44.4594C44.2015 14.6237 43.944 14.6021 43.6909 14.5561C43.4867 14.5178 43.2895 14.4526 43.1054 14.3625C42.9375 14.2794 42.7852 14.1719 42.6542 14.044C42.519 13.9108 42.4001 13.7642 42.2997 13.6068L41.1164 11.0121C41.0089 10.7802 40.853 10.6097 40.6486 10.5005C40.4442 10.3913 40.2098 10.3367 39.9452 10.3365H39.107V14.6201H35.7764V4.31429H39.107V8.39924H39.7953C40.0961 8.39924 40.3199 8.35458 40.4667 8.26525C40.6135 8.17593 40.7443 8.02511 40.8589 7.81281L42.3321 5.08903Z" fill="#1D1D1B"/>
<path d="M52.7 4.1543C53.5443 4.1543 54.3144 4.27694 55.0102 4.52221C55.706 4.76749 56.3023 5.11885 56.7991 5.57629C57.2968 6.0336 57.684 6.58861 57.9605 7.24133C58.237 7.89405 58.3749 8.62785 58.374 9.44273C58.374 10.2644 58.2362 11.0049 57.9605 11.6642C57.6848 12.3235 57.2977 12.8833 56.7991 13.3436C56.3009 13.8044 55.7045 14.159 55.0102 14.4072C54.3159 14.6555 53.5458 14.7797 52.7 14.7798C51.8474 14.7798 51.072 14.6556 50.3737 14.4072C49.6755 14.1588 49.0737 13.8043 48.5686 13.3436C48.0637 12.8832 47.6734 12.3234 47.3976 11.6642C47.1218 11.005 46.9839 10.2645 46.9839 9.44273C46.9839 8.62758 47.1218 7.89378 47.3976 7.24133C47.6734 6.58888 48.0637 6.03387 48.5686 5.57629C49.0735 5.11939 49.6752 4.76803 50.3737 4.52221C51.0723 4.2764 51.8477 4.15376 52.7 4.1543ZM52.7 12.4937C53.4663 12.4937 54.0304 12.2437 54.3921 11.7437C54.7538 11.2436 54.9347 10.4834 54.9348 9.463C54.9348 8.44271 54.7539 7.68404 54.3921 7.187C54.0302 6.68996 53.4662 6.44144 52.7 6.44144C51.912 6.44144 51.335 6.68996 50.9689 7.187C50.6028 7.68404 50.4199 8.44271 50.4202 9.463C50.4202 10.4834 50.6032 11.2439 50.9691 11.7445C51.335 12.245 51.9121 12.495 52.7002 12.4945L52.7 12.4937Z" fill="#1D1D1B"/>
<path d="M66.7213 10.0683C66.8286 9.79014 66.9432 9.51676 67.0648 9.2481C67.1808 8.9908 67.3136 8.74032 67.4628 8.49809L69.3534 4.97098C69.5111 4.69936 69.7028 4.52043 69.9284 4.43421C70.1444 4.34987 70.3764 4.30592 70.6109 4.30489H73.4039V14.6227H70.3957V9.74028C70.3957 9.48852 70.4083 9.20527 70.4334 8.89053C70.4566 8.58877 70.4979 8.28844 70.557 7.99091L67.8386 12.8713C67.638 13.2091 67.3265 13.3781 66.904 13.3781H66.5495C66.1273 13.3781 65.8157 13.2091 65.6147 12.8713L62.8756 7.96112C62.933 8.25274 62.9778 8.55917 63.01 8.88039C63.0421 9.20162 63.0582 9.48804 63.0584 9.73967V14.6198H60.0498V4.30347H62.8434C63.0784 4.30466 63.3106 4.35033 63.5258 4.43766C63.751 4.52753 63.9426 4.70483 64.1005 4.96956L65.9808 8.49768C66.264 9.0059 66.5113 9.53052 66.7213 10.0683Z" fill="#1D1D1B"/>
<path d="M83.8475 6.7584C83.7618 6.85759 83.6644 6.94767 83.5572 7.02699C83.4641 7.0932 83.3317 7.12631 83.1599 7.12631C83.0032 7.12843 82.8488 7.09063 82.7138 7.01705C82.5811 6.94408 82.4325 6.863 82.2679 6.7738C82.0831 6.67617 81.8888 6.59474 81.6876 6.53056C81.4657 6.45799 81.1901 6.42163 80.8607 6.4215C80.4525 6.4215 80.0996 6.49103 79.8021 6.63009C79.5063 6.76814 79.2531 6.97332 79.0663 7.22645C78.873 7.48511 78.7298 7.80153 78.6366 8.17573C78.5434 8.54993 78.497 8.97223 78.4974 9.44265C78.4974 10.4301 78.7033 11.1888 79.1151 11.7188C79.5269 12.2489 80.0946 12.5139 80.8182 12.5139C81.2047 12.5139 81.5108 12.4691 81.7365 12.3797C81.9403 12.3017 82.1333 12.2016 82.3115 12.0815C82.4689 11.9722 82.6139 11.8708 82.7464 11.7774C82.8789 11.6841 83.0455 11.6377 83.2463 11.6384C83.511 11.6384 83.7115 11.7279 83.848 11.907L84.8149 13.0103C84.4712 13.3752 84.1094 13.6716 83.7296 13.8996C83.3658 14.1211 82.9745 14.3014 82.5641 14.4365C82.1757 14.5637 81.7742 14.6536 81.366 14.7047C80.9778 14.7534 80.5866 14.7783 80.195 14.7791C79.5257 14.7812 78.8626 14.6596 78.2448 14.4215C77.6278 14.1849 77.0713 13.8311 76.6114 13.3831C76.1426 12.929 75.7701 12.3708 75.4939 11.7083C75.2177 11.0459 75.0794 10.2906 75.0791 9.44265C75.0791 8.70047 75.1991 8.00633 75.4391 7.36024C75.6791 6.71414 76.0339 6.1542 76.5034 5.6804C76.9723 5.20742 77.5526 4.83464 78.2441 4.56207C78.9357 4.28949 79.7359 4.15361 80.6448 4.15442C81.5187 4.15442 82.2851 4.28368 82.9441 4.5422C83.6031 4.80072 84.1976 5.1783 84.7277 5.67493L83.8475 6.7584Z" fill="#758CDA"/>
<path d="M86.1143 4.31421H90.7769C91.4935 4.31421 92.1167 4.37718 92.6465 4.50313C93.1763 4.62908 93.6151 4.80476 93.963 5.03017C94.3101 5.25517 94.5678 5.52201 94.7362 5.83066C94.906 6.14352 94.9929 6.48927 94.9896 6.83933C94.9884 7.07212 94.9578 7.30399 94.8982 7.53016C94.8349 7.7706 94.7276 7.99924 94.5809 8.20619C94.4306 8.42146 94.2247 8.61863 93.9632 8.79769C93.7017 8.97674 93.3668 9.11594 92.9585 9.21526C93.2836 9.28439 93.599 9.38777 93.8985 9.52338C94.1758 9.6473 94.4298 9.81155 94.6508 10.0099C94.8615 10.2014 95.0294 10.4294 95.1449 10.6808C95.2628 10.9358 95.322 11.2257 95.3224 11.5504C95.3224 12.1006 95.1971 12.5693 94.9464 12.9564C94.6996 13.3401 94.3593 13.6652 93.9527 13.9057C93.5407 14.1507 93.0715 14.3312 92.545 14.4471C92.0153 14.5635 91.4726 14.6219 90.9281 14.6211H86.116L86.1143 4.31421ZM89.2731 8.51856H90.6805C91.0887 8.51856 91.4217 8.4043 91.6797 8.17578C91.9377 7.94726 92.0667 7.65394 92.0667 7.29583C92.0662 7.16769 92.0444 7.04039 92.0021 6.91839C91.9577 6.79047 91.8803 6.67449 91.7766 6.58048C91.6688 6.48088 91.5255 6.3998 91.3467 6.33723C91.1679 6.27466 90.9458 6.24317 90.6805 6.24276H89.2731V8.51856ZM89.2731 10.3474V12.593H90.906C91.3215 12.593 91.6509 12.4888 91.8945 12.2806C92.138 12.0724 92.2598 11.7891 92.26 11.4309C92.2606 11.2904 92.2444 11.1504 92.2115 11.0133C92.1808 10.8838 92.1142 10.7639 92.0183 10.6654C91.9211 10.5661 91.7832 10.488 91.6044 10.4311C91.4255 10.3742 91.1928 10.3461 90.906 10.3468L89.2731 10.3474Z" fill="#758CDA"/>
<path d="M102.166 4.1543C103.01 4.1543 103.78 4.27694 104.476 4.52221C105.172 4.76749 105.768 5.11885 106.265 5.57629C106.763 6.0336 107.15 6.58861 107.427 7.24133C107.703 7.89405 107.841 8.62785 107.84 9.44273C107.84 10.2644 107.702 11.0049 107.427 11.6642C107.151 12.3235 106.764 12.8833 106.265 13.3436C105.767 13.8044 105.171 14.159 104.476 14.4072C103.782 14.6555 103.012 14.7797 102.166 14.7798C101.314 14.7798 100.538 14.6556 99.8398 14.4072C99.1414 14.1588 98.5398 13.804 98.0351 13.3428C97.5303 12.8824 97.1399 12.3227 96.8641 11.6636C96.5883 11.0045 96.4503 10.2642 96.4502 9.44273C96.4502 8.62785 96.5882 7.89405 96.8641 7.24133C97.1401 6.58861 97.5304 6.0336 98.0351 5.57629C98.54 5.11939 99.1417 4.76803 99.8403 4.52221C100.539 4.2764 101.314 4.15376 102.166 4.1543ZM102.166 12.4937C102.932 12.4937 103.496 12.2437 103.858 11.7437C104.22 11.2436 104.401 10.4834 104.401 9.463C104.401 8.44271 104.22 7.68404 103.858 7.187C103.496 6.68996 102.932 6.44144 102.166 6.44144C101.378 6.44144 100.801 6.68996 100.436 7.187C100.071 7.68404 99.8881 8.44271 99.8874 9.463C99.8874 10.4834 100.07 11.2439 100.436 11.7445C100.802 12.245 101.379 12.495 102.166 12.4945V12.4937Z" fill="#758CDA"/>
<path d="M115.736 2.88225C115.12 2.91549 114.592 3.01684 114.151 3.18631C113.711 3.35577 113.347 3.58591 113.061 3.87673C112.769 4.17607 112.548 4.52807 112.41 4.91054C112.263 5.30798 112.175 5.7486 112.147 6.23239C112.333 6.00725 112.545 5.80222 112.781 5.62123C113.033 5.4274 113.311 5.26393 113.608 5.13473C113.929 4.99446 114.266 4.88628 114.613 4.81202C114.998 4.72999 115.393 4.68992 115.789 4.69263C116.527 4.69263 117.193 4.81351 117.788 5.05527C118.369 5.28844 118.888 5.63757 119.307 6.07772C119.726 6.51828 120.048 7.04666 120.274 7.66289C120.5 8.27913 120.613 8.96515 120.613 9.72098C120.613 10.5032 120.475 11.2059 120.199 11.8291C119.924 12.4524 119.537 12.9825 119.038 13.4194C118.54 13.8568 117.944 14.1931 117.249 14.4283C116.554 14.6634 115.784 14.7807 114.938 14.7802C114.085 14.7802 113.308 14.6543 112.606 14.4025C111.904 14.1507 111.301 13.7499 110.796 13.2C110.291 12.6502 109.901 11.9412 109.625 11.0732C109.349 10.2052 109.211 9.15117 109.211 7.91101C109.211 6.89085 109.314 5.93137 109.518 5.03256C109.723 4.13376 110.068 3.34172 110.553 2.65643C111.037 1.97074 111.678 1.41579 112.477 0.991595C113.275 0.567396 114.269 0.318878 115.458 0.246038L119.401 -0.0020752L119.584 1.54823C119.619 1.87256 119.566 2.14919 119.422 2.37811C119.279 2.60704 119.025 2.72805 118.659 2.74116L115.736 2.88225ZM114.941 12.6027C115.707 12.6027 116.271 12.3658 116.633 11.8922C116.995 11.4185 117.176 10.698 117.176 9.73051C117.176 8.76332 116.995 8.04439 116.633 7.57371C116.271 7.10302 115.707 6.86788 114.941 6.86828C114.145 6.86828 113.565 7.10194 113.2 7.56924C112.835 8.03655 112.652 8.75042 112.651 9.71085C112.651 10.6851 112.834 11.4107 113.2 11.8877C113.566 12.3648 114.146 12.6031 114.941 12.6027Z" fill="#758CDA"/>
<path d="M127.458 4.1543C128.302 4.1543 129.072 4.27694 129.768 4.52221C130.464 4.76749 131.06 5.11885 131.557 5.57629C132.054 6.0336 132.442 6.58861 132.718 7.24133C132.995 7.89405 133.133 8.62785 133.132 9.44273C133.132 10.2644 132.994 11.0049 132.718 11.6642C132.442 12.3235 132.055 12.8833 131.556 13.3436C131.058 13.8044 130.462 14.159 129.768 14.4072C129.073 14.6555 128.303 14.7797 127.458 14.7798C126.605 14.7798 125.83 14.6556 125.131 14.4072C124.433 14.1588 123.831 13.8043 123.326 13.3436C122.821 12.8832 122.431 12.3234 122.155 11.6642C121.879 11.005 121.741 10.2645 121.742 9.44273C121.742 8.62758 121.88 7.89378 122.155 7.24133C122.431 6.58888 122.822 6.03387 123.327 5.57629C123.831 5.11939 124.433 4.76803 125.132 4.52221C125.83 4.2764 126.605 4.15376 127.458 4.1543ZM127.458 12.4937C128.224 12.4937 128.788 12.2437 129.15 11.7437C129.512 11.2436 129.693 10.4834 129.693 9.463C129.693 8.44271 129.512 7.68404 129.15 7.187C128.788 6.68996 128.224 6.44144 127.458 6.44144C126.67 6.44144 126.093 6.68996 125.727 7.187C125.361 7.68404 125.179 8.44271 125.181 9.463C125.181 10.4834 125.364 11.2439 125.729 11.7445C126.094 12.245 126.67 12.495 127.458 12.4945V12.4937Z" fill="#758CDA"/>
<path d="M145.024 4.31409V12.4147H147.077V17.1252C147.077 17.3899 146.989 17.6019 146.814 17.7611C146.638 17.9203 146.414 17.9998 146.141 17.9997H144.046V14.6203H136.622V17.1657C136.622 17.2705 136.604 17.3746 136.568 17.474C136.532 17.5729 136.476 17.6641 136.401 17.7424C136.323 17.8241 136.225 17.8886 136.116 17.9312C135.987 17.9804 135.848 18.0041 135.708 18.0007H133.592V12.5035H133.969C134.201 12.4976 134.432 12.4642 134.656 12.4041C134.878 12.3445 135.091 12.2203 135.295 12.0316C135.499 11.8428 135.691 11.5678 135.87 11.2065C136.049 10.8453 136.212 10.3633 136.359 9.76043C136.506 9.15757 136.637 8.41208 136.751 7.52395C136.866 6.6361 136.959 5.56594 137.031 4.31348L145.024 4.31409ZM139.749 6.59089C139.62 8.05552 139.43 9.26616 139.179 10.2228C138.929 11.1794 138.635 11.9397 138.298 12.5035H141.802V6.59049L139.749 6.59089Z" fill="#758CDA"/>
<path d="M155.973 14.6205C155.657 14.6205 155.419 14.5807 155.258 14.5013C155.097 14.4218 154.962 14.2559 154.855 14.0036L154.619 13.4373C154.339 13.6562 154.071 13.8484 153.813 14.014C153.56 14.1768 153.293 14.3182 153.012 14.4364C152.731 14.554 152.435 14.6407 152.131 14.6946C151.79 14.7535 151.442 14.7818 151.095 14.7792C150.586 14.7792 150.124 14.718 149.709 14.5955C149.293 14.4731 148.941 14.2925 148.65 14.0537C148.356 13.809 148.126 13.5047 147.979 13.1644C147.821 12.8098 147.743 12.4005 147.743 11.9364C147.743 11.5715 147.843 11.1973 148.044 10.8136C148.244 10.43 148.591 10.0804 149.085 9.76501C149.579 9.45027 150.245 9.18675 151.084 8.97445C151.922 8.76215 152.979 8.64282 154.254 8.61647V8.17923C154.254 7.57638 154.119 7.14069 153.851 6.87217C153.582 6.60365 153.201 6.46953 152.706 6.4698C152.312 6.4698 151.99 6.50953 151.739 6.58899C151.508 6.661 151.283 6.75077 151.068 6.85737C150.871 6.9571 150.679 7.04657 150.493 7.12576C150.306 7.20495 150.084 7.24468 149.827 7.24495C149.598 7.24495 149.404 7.19198 149.247 7.08603C149.093 6.98395 148.962 6.85572 148.86 6.70818L148.258 5.74411C148.912 5.20498 149.673 4.78823 150.498 4.51691C151.318 4.24853 152.198 4.11427 153.137 4.11414C153.81 4.11414 154.417 4.21549 154.958 4.4182C155.499 4.6209 155.957 4.90247 156.333 5.26288C156.709 5.6241 156.998 6.0531 157.199 6.54987C157.4 7.04663 157.5 7.59002 157.5 8.18004V14.6207L155.973 14.6205ZM152.148 12.742C152.577 12.742 152.953 12.6724 153.276 12.5332C153.598 12.394 153.924 12.1687 154.254 11.8574V10.426C153.587 10.4521 153.04 10.5051 152.61 10.585C152.181 10.6648 151.841 10.7644 151.59 10.8835C151.339 11.0027 151.165 11.1385 151.069 11.2908C150.973 11.4412 150.922 11.613 150.923 11.7878C150.923 12.1392 151.027 12.386 151.235 12.5283C151.442 12.6706 151.747 12.7416 152.149 12.7412L152.148 12.742Z" fill="#758CDA"/>
</g>
<defs>
<clipPath id="clip0">
<rect width="157.5" height="18" fill="white"/>
</clipPath>
</defs>
</svg>
